<svg width="250" height="250" viewBox="0 0 250 250" fill="none" xmlns="http://www.w3.org/2000/svg">
<rect width="250" height="250" rx="125" fill="#10172A"/>
<path d="M171.798 173C170.731 173 170.198 172.467 170.198 171.4V159.368C170.198 158.813 170.219 158.365 170.262 158.024C170.347 157.683 170.603 157.405 171.03 157.192L187.798 149.512V138.12L171.286 127.88C170.56 127.453 170.198 126.813 170.198 125.96V102.472C170.198 101.789 170.24 101.299 170.326 101C170.411 100.659 170.731 100.296 171.286 99.912L188.118 88.52C188.544 88.264 188.928 88.072 189.27 87.944C189.654 87.7733 190.123 87.688 190.678 87.688H207.958C209.024 87.688 209.558 88.2213 209.558 89.288V100.168C209.558 101.107 209.238 101.747 208.598 102.088L191.83 109V120.84L208.598 130.44C209.238 130.739 209.558 131.421 209.558 132.488V160.328C209.558 160.669 209.494 161.032 209.366 161.416C209.28 161.8 209.067 162.077 208.726 162.248L188.63 172.232C188.374 172.36 188.054 172.531 187.67 172.744C187.328 172.915 186.987 173 186.646 173H171.798Z" fill="white"/>
<path d="M109.967 173C108.901 173 108.367 172.467 108.367 171.4V89.288C108.367 88.2213 108.901 87.688 109.967 87.688H145.359C146.383 87.688 147.237 88.0293 147.919 88.712L160.719 101.512C161.445 102.237 161.807 103.091 161.807 104.072V126.152C161.807 127.176 161.445 128.029 160.719 128.712L147.919 141.512C147.237 142.237 146.383 142.6 145.359 142.6H129.679V171.4C129.679 172.467 129.146 173 128.079 173H109.967ZM134.479 125.192C138.021 125.192 140.431 124.488 141.711 123.08C143.034 121.672 143.695 119.005 143.695 115.08C143.695 111.155 143.034 108.488 141.711 107.08C140.431 105.672 138.021 104.968 134.479 104.968C130.981 104.968 128.57 105.672 127.247 107.08C125.967 108.488 125.327 111.155 125.327 115.08C125.327 119.005 125.967 121.672 127.247 123.08C128.57 124.488 130.981 125.192 134.479 125.192Z" fill="white"/>
<path d="M43.9675 173C42.9008 173 42.3675 172.467 42.3675 171.4V89.288C42.3675 88.2213 42.9008 87.688 43.9675 87.688H78.6555C79.6795 87.688 80.5328 87.9653 81.2155 88.52L95.9355 103.112C96.4048 103.539 96.6822 103.901 96.7675 104.2C96.8955 104.499 96.9595 104.989 96.9595 105.672V123.208C96.9595 123.763 96.7462 124.253 96.3195 124.68L89.2795 131.528L83.3275 136.648L90.3675 145.992L97.5995 161.48C97.7702 161.864 97.8982 162.248 97.9835 162.632C98.1115 162.973 98.1755 163.4 98.1755 163.912V171.4C98.1755 172.467 97.6422 173 96.5755 173H79.6795C78.7408 173 78.1008 172.573 77.7595 171.72L67.4555 141.768H62.6555V171.4C62.6555 172.467 62.1222 173 61.0555 173H43.9675ZM69.6955 126.088C73.2368 126.088 75.6475 125.363 76.9275 123.912C78.2075 122.419 78.8475 119.645 78.8475 115.592C78.8475 111.496 78.2075 108.723 76.9275 107.272C75.6475 105.779 73.2368 105.032 69.6955 105.032C66.1968 105.032 63.7862 105.779 62.4635 107.272C61.1408 108.723 60.4795 111.496 60.4795 115.592C60.4795 119.645 61.1408 122.419 62.4635 123.912C63.7862 125.363 66.1968 126.088 69.6955 126.088Z" fill="white"/>
</svg>
